<mxfile host="app.diagrams.net" agent="Mozilla/5.0 (Windows NT 10.0; Win64; x64) AppleWebKit/537.36 (KHTML, like Gecko) Chrome/134.0.0.0 Safari/537.36" version="26.1.1">
  <diagram name="第 1 页" id="lXGiIxjLEb7daWPMp6c_">
    <mxGraphModel dx="2097" dy="677" grid="1" gridSize="10" guides="1" tooltips="1" connect="1" arrows="1" fold="1" page="1" pageScale="1" pageWidth="827" pageHeight="1169" math="0" shadow="0">
      <root>
        <mxCell id="0" />
        <mxCell id="1" parent="0" />
        <mxCell id="fK0lMWsvGs1LqnmPN2tz-50" value="J&lt;sub&gt;1&lt;/sub&gt; = {2}&lt;sub&gt;&amp;nbsp;&lt;/sub&gt;" style="text;html=1;align=center;verticalAlign=middle;resizable=0;points=[];autosize=1;strokeColor=none;fillColor=none;fontStyle=2;fontFamily=Times New Roman;fontSize=16;" parent="1" vertex="1">
          <mxGeometry x="-85" y="605" width="80" height="40" as="geometry" />
        </mxCell>
        <mxCell id="fK0lMWsvGs1LqnmPN2tz-51" value="J&lt;span&gt;&lt;sub&gt;2&lt;/sub&gt;&lt;/span&gt;&amp;nbsp;= {1,3}&lt;sub&gt;&amp;nbsp;&lt;/sub&gt;" style="text;html=1;align=center;verticalAlign=middle;resizable=0;points=[];autosize=1;strokeColor=none;fillColor=none;fontStyle=2;fontFamily=Times New Roman;fontSize=16;" parent="1" vertex="1">
          <mxGeometry x="405" y="605" width="90" height="40" as="geometry" />
        </mxCell>
        <mxCell id="fK0lMWsvGs1LqnmPN2tz-82" value="" style="shape=table;startSize=0;container=1;collapsible=0;childLayout=tableLayout;fontSize=16;fontFamily=Times New Roman;" parent="1" vertex="1">
          <mxGeometry x="-240" y="640" width="400" height="40" as="geometry" />
        </mxCell>
        <mxCell id="fK0lMWsvGs1LqnmPN2tz-83" value="" style="shape=tableRow;horizontal=0;startSize=0;swimlaneHead=0;swimlaneBody=0;strokeColor=inherit;top=0;left=0;bottom=0;right=0;collapsible=0;dropTarget=0;fillColor=none;points=[[0,0.5],[1,0.5]];portConstraint=eastwest;fontSize=16;fontFamily=Times New Roman;" parent="fK0lMWsvGs1LqnmPN2tz-82" vertex="1">
          <mxGeometry width="400" height="40" as="geometry" />
        </mxCell>
        <mxCell id="fK0lMWsvGs1LqnmPN2tz-84" value="2" style="shape=partialRectangle;html=1;whiteSpace=wrap;connectable=0;strokeColor=#6c8ebf;overflow=hidden;fillColor=#dae8fc;top=0;left=0;bottom=0;right=0;pointerEvents=1;fontSize=16;fontFamily=Times New Roman;" parent="fK0lMWsvGs1LqnmPN2tz-83" vertex="1">
          <mxGeometry width="45" height="40" as="geometry">
            <mxRectangle width="45" height="40" as="alternateBounds" />
          </mxGeometry>
        </mxCell>
        <mxCell id="fK0lMWsvGs1LqnmPN2tz-85" value="1" style="shape=partialRectangle;html=1;whiteSpace=wrap;connectable=0;strokeColor=#82b366;overflow=hidden;fillColor=#d5e8d4;top=0;left=0;bottom=0;right=0;pointerEvents=1;fontSize=16;fontFamily=Times New Roman;" parent="fK0lMWsvGs1LqnmPN2tz-83" vertex="1">
          <mxGeometry x="45" width="45" height="40" as="geometry">
            <mxRectangle width="45" height="40" as="alternateBounds" />
          </mxGeometry>
        </mxCell>
        <mxCell id="fK0lMWsvGs1LqnmPN2tz-86" value="3" style="shape=partialRectangle;html=1;whiteSpace=wrap;connectable=0;strokeColor=#d79b00;overflow=hidden;fillColor=#ffe6cc;top=0;left=0;bottom=0;right=0;pointerEvents=1;fontSize=16;fontFamily=Times New Roman;" parent="fK0lMWsvGs1LqnmPN2tz-83" vertex="1">
          <mxGeometry x="90" width="44" height="40" as="geometry">
            <mxRectangle width="44" height="40" as="alternateBounds" />
          </mxGeometry>
        </mxCell>
        <mxCell id="fK0lMWsvGs1LqnmPN2tz-87" value="1" style="shape=partialRectangle;html=1;whiteSpace=wrap;connectable=0;strokeColor=#82b366;overflow=hidden;fillColor=#d5e8d4;top=0;left=0;bottom=0;right=0;pointerEvents=1;fontSize=16;fontFamily=Times New Roman;" parent="fK0lMWsvGs1LqnmPN2tz-83" vertex="1">
          <mxGeometry x="134" width="44" height="40" as="geometry">
            <mxRectangle width="44" height="40" as="alternateBounds" />
          </mxGeometry>
        </mxCell>
        <mxCell id="fK0lMWsvGs1LqnmPN2tz-88" value="2" style="shape=partialRectangle;html=1;whiteSpace=wrap;connectable=0;strokeColor=#6c8ebf;overflow=hidden;fillColor=#dae8fc;top=0;left=0;bottom=0;right=0;pointerEvents=1;fontSize=16;fontFamily=Times New Roman;" parent="fK0lMWsvGs1LqnmPN2tz-83" vertex="1">
          <mxGeometry x="178" width="44" height="40" as="geometry">
            <mxRectangle width="44" height="40" as="alternateBounds" />
          </mxGeometry>
        </mxCell>
        <mxCell id="fK0lMWsvGs1LqnmPN2tz-89" value="3" style="shape=partialRectangle;html=1;whiteSpace=wrap;connectable=0;strokeColor=#d79b00;overflow=hidden;fillColor=#ffe6cc;top=0;left=0;bottom=0;right=0;pointerEvents=1;fontSize=16;fontFamily=Times New Roman;" parent="fK0lMWsvGs1LqnmPN2tz-83" vertex="1">
          <mxGeometry x="222" width="44" height="40" as="geometry">
            <mxRectangle width="44" height="40" as="alternateBounds" />
          </mxGeometry>
        </mxCell>
        <mxCell id="fK0lMWsvGs1LqnmPN2tz-90" value="2" style="shape=partialRectangle;html=1;whiteSpace=wrap;connectable=0;strokeColor=#6c8ebf;overflow=hidden;fillColor=#dae8fc;top=0;left=0;bottom=0;right=0;pointerEvents=1;fontSize=16;fontFamily=Times New Roman;" parent="fK0lMWsvGs1LqnmPN2tz-83" vertex="1">
          <mxGeometry x="266" width="44" height="40" as="geometry">
            <mxRectangle width="44" height="40" as="alternateBounds" />
          </mxGeometry>
        </mxCell>
        <mxCell id="fK0lMWsvGs1LqnmPN2tz-91" value="3" style="shape=partialRectangle;html=1;whiteSpace=wrap;connectable=0;strokeColor=#d79b00;overflow=hidden;fillColor=#ffe6cc;top=0;left=0;bottom=0;right=0;pointerEvents=1;fontSize=16;fontFamily=Times New Roman;" parent="fK0lMWsvGs1LqnmPN2tz-83" vertex="1">
          <mxGeometry x="310" width="45" height="40" as="geometry">
            <mxRectangle width="45" height="40" as="alternateBounds" />
          </mxGeometry>
        </mxCell>
        <mxCell id="fK0lMWsvGs1LqnmPN2tz-92" value="1" style="shape=partialRectangle;html=1;whiteSpace=wrap;connectable=0;strokeColor=#82b366;overflow=hidden;fillColor=#d5e8d4;top=0;left=0;bottom=0;right=0;pointerEvents=1;fontSize=16;fontFamily=Times New Roman;" parent="fK0lMWsvGs1LqnmPN2tz-83" vertex="1">
          <mxGeometry x="355" width="45" height="40" as="geometry">
            <mxRectangle width="45" height="40" as="alternateBounds" />
          </mxGeometry>
        </mxCell>
        <mxCell id="fK0lMWsvGs1LqnmPN2tz-93" value="" style="shape=table;startSize=0;container=1;collapsible=0;childLayout=tableLayout;fontSize=16;fontFamily=Times New Roman;" parent="1" vertex="1">
          <mxGeometry x="-240" y="720" width="400" height="40" as="geometry" />
        </mxCell>
        <mxCell id="fK0lMWsvGs1LqnmPN2tz-94" value="" style="shape=tableRow;horizontal=0;startSize=0;swimlaneHead=0;swimlaneBody=0;strokeColor=inherit;top=0;left=0;bottom=0;right=0;collapsible=0;dropTarget=0;fillColor=none;points=[[0,0.5],[1,0.5]];portConstraint=eastwest;fontSize=16;fontFamily=Times New Roman;" parent="fK0lMWsvGs1LqnmPN2tz-93" vertex="1">
          <mxGeometry width="400" height="40" as="geometry" />
        </mxCell>
        <mxCell id="fK0lMWsvGs1LqnmPN2tz-95" value="2" style="shape=partialRectangle;html=1;whiteSpace=wrap;connectable=0;strokeColor=#6c8ebf;overflow=hidden;fillColor=#dae8fc;top=0;left=0;bottom=0;right=0;pointerEvents=1;fontSize=16;fontFamily=Times New Roman;" parent="fK0lMWsvGs1LqnmPN2tz-94" vertex="1">
          <mxGeometry width="45" height="40" as="geometry">
            <mxRectangle width="45" height="40" as="alternateBounds" />
          </mxGeometry>
        </mxCell>
        <mxCell id="fK0lMWsvGs1LqnmPN2tz-96" value="" style="shape=partialRectangle;html=1;whiteSpace=wrap;connectable=0;strokeColor=inherit;overflow=hidden;fillColor=none;top=0;left=0;bottom=0;right=0;pointerEvents=1;fontSize=16;fontFamily=Times New Roman;" parent="fK0lMWsvGs1LqnmPN2tz-94" vertex="1">
          <mxGeometry x="45" width="44" height="40" as="geometry">
            <mxRectangle width="44" height="40" as="alternateBounds" />
          </mxGeometry>
        </mxCell>
        <mxCell id="fK0lMWsvGs1LqnmPN2tz-97" value="" style="shape=partialRectangle;html=1;whiteSpace=wrap;connectable=0;strokeColor=inherit;overflow=hidden;fillColor=none;top=0;left=0;bottom=0;right=0;pointerEvents=1;fontSize=16;fontFamily=Times New Roman;" parent="fK0lMWsvGs1LqnmPN2tz-94" vertex="1">
          <mxGeometry x="89" width="45" height="40" as="geometry">
            <mxRectangle width="45" height="40" as="alternateBounds" />
          </mxGeometry>
        </mxCell>
        <mxCell id="fK0lMWsvGs1LqnmPN2tz-98" value="" style="shape=partialRectangle;html=1;whiteSpace=wrap;connectable=0;strokeColor=inherit;overflow=hidden;fillColor=none;top=0;left=0;bottom=0;right=0;pointerEvents=1;fontSize=16;fontFamily=Times New Roman;" parent="fK0lMWsvGs1LqnmPN2tz-94" vertex="1">
          <mxGeometry x="134" width="43" height="40" as="geometry">
            <mxRectangle width="43" height="40" as="alternateBounds" />
          </mxGeometry>
        </mxCell>
        <mxCell id="fK0lMWsvGs1LqnmPN2tz-99" value="2" style="shape=partialRectangle;html=1;whiteSpace=wrap;connectable=0;strokeColor=#6c8ebf;overflow=hidden;fillColor=#dae8fc;top=0;left=0;bottom=0;right=0;pointerEvents=1;fontSize=16;fontFamily=Times New Roman;" parent="fK0lMWsvGs1LqnmPN2tz-94" vertex="1">
          <mxGeometry x="177" width="46" height="40" as="geometry">
            <mxRectangle width="46" height="40" as="alternateBounds" />
          </mxGeometry>
        </mxCell>
        <mxCell id="fK0lMWsvGs1LqnmPN2tz-100" value="" style="shape=partialRectangle;html=1;whiteSpace=wrap;connectable=0;strokeColor=inherit;overflow=hidden;fillColor=none;top=0;left=0;bottom=0;right=0;pointerEvents=1;fontSize=16;fontFamily=Times New Roman;" parent="fK0lMWsvGs1LqnmPN2tz-94" vertex="1">
          <mxGeometry x="223" width="43" height="40" as="geometry">
            <mxRectangle width="43" height="40" as="alternateBounds" />
          </mxGeometry>
        </mxCell>
        <mxCell id="fK0lMWsvGs1LqnmPN2tz-101" value="2" style="shape=partialRectangle;html=1;whiteSpace=wrap;connectable=0;strokeColor=#6c8ebf;overflow=hidden;fillColor=#dae8fc;top=0;left=0;bottom=0;right=0;pointerEvents=1;fontSize=16;fontFamily=Times New Roman;" parent="fK0lMWsvGs1LqnmPN2tz-94" vertex="1">
          <mxGeometry x="266" width="45" height="40" as="geometry">
            <mxRectangle width="45" height="40" as="alternateBounds" />
          </mxGeometry>
        </mxCell>
        <mxCell id="fK0lMWsvGs1LqnmPN2tz-102" value="" style="shape=partialRectangle;html=1;whiteSpace=wrap;connectable=0;strokeColor=inherit;overflow=hidden;fillColor=none;top=0;left=0;bottom=0;right=0;pointerEvents=1;fontSize=16;fontFamily=Times New Roman;" parent="fK0lMWsvGs1LqnmPN2tz-94" vertex="1">
          <mxGeometry x="311" width="44" height="40" as="geometry">
            <mxRectangle width="44" height="40" as="alternateBounds" />
          </mxGeometry>
        </mxCell>
        <mxCell id="fK0lMWsvGs1LqnmPN2tz-103" value="" style="shape=partialRectangle;html=1;whiteSpace=wrap;connectable=0;strokeColor=inherit;overflow=hidden;fillColor=none;top=0;left=0;bottom=0;right=0;pointerEvents=1;fontSize=16;fontFamily=Times New Roman;" parent="fK0lMWsvGs1LqnmPN2tz-94" vertex="1">
          <mxGeometry x="355" width="45" height="40" as="geometry">
            <mxRectangle width="45" height="40" as="alternateBounds" />
          </mxGeometry>
        </mxCell>
        <mxCell id="fK0lMWsvGs1LqnmPN2tz-115" value="" style="shape=table;startSize=0;container=1;collapsible=0;childLayout=tableLayout;fontSize=16;fontFamily=Times New Roman;" parent="1" vertex="1">
          <mxGeometry x="250" y="720" width="400" height="40" as="geometry" />
        </mxCell>
        <mxCell id="fK0lMWsvGs1LqnmPN2tz-116" value="" style="shape=tableRow;horizontal=0;startSize=0;swimlaneHead=0;swimlaneBody=0;strokeColor=inherit;top=0;left=0;bottom=0;right=0;collapsible=0;dropTarget=0;fillColor=none;points=[[0,0.5],[1,0.5]];portConstraint=eastwest;fontSize=16;fontFamily=Times New Roman;" parent="fK0lMWsvGs1LqnmPN2tz-115" vertex="1">
          <mxGeometry width="400" height="40" as="geometry" />
        </mxCell>
        <mxCell id="fK0lMWsvGs1LqnmPN2tz-117" value="" style="shape=partialRectangle;html=1;whiteSpace=wrap;connectable=0;strokeColor=inherit;overflow=hidden;fillColor=none;top=0;left=0;bottom=0;right=0;pointerEvents=1;fontSize=16;fontFamily=Times New Roman;" parent="fK0lMWsvGs1LqnmPN2tz-116" vertex="1">
          <mxGeometry width="44" height="40" as="geometry">
            <mxRectangle width="44" height="40" as="alternateBounds" />
          </mxGeometry>
        </mxCell>
        <mxCell id="fK0lMWsvGs1LqnmPN2tz-118" value="2" style="shape=partialRectangle;html=1;whiteSpace=wrap;connectable=0;strokeColor=#6c8ebf;overflow=hidden;fillColor=#dae8fc;top=0;left=0;bottom=0;right=0;pointerEvents=1;fontSize=16;fontFamily=Times New Roman;" parent="fK0lMWsvGs1LqnmPN2tz-116" vertex="1">
          <mxGeometry x="44" width="45" height="40" as="geometry">
            <mxRectangle width="45" height="40" as="alternateBounds" />
          </mxGeometry>
        </mxCell>
        <mxCell id="fK0lMWsvGs1LqnmPN2tz-119" value="" style="shape=partialRectangle;html=1;whiteSpace=wrap;connectable=0;strokeColor=inherit;overflow=hidden;fillColor=none;top=0;left=0;bottom=0;right=0;pointerEvents=1;fontSize=16;fontFamily=Times New Roman;" parent="fK0lMWsvGs1LqnmPN2tz-116" vertex="1">
          <mxGeometry x="89" width="44" height="40" as="geometry">
            <mxRectangle width="44" height="40" as="alternateBounds" />
          </mxGeometry>
        </mxCell>
        <mxCell id="fK0lMWsvGs1LqnmPN2tz-120" value="" style="shape=partialRectangle;html=1;whiteSpace=wrap;connectable=0;strokeColor=inherit;overflow=hidden;fillColor=none;top=0;left=0;bottom=0;right=0;pointerEvents=1;fontSize=16;fontFamily=Times New Roman;" parent="fK0lMWsvGs1LqnmPN2tz-116" vertex="1">
          <mxGeometry x="133" width="45" height="40" as="geometry">
            <mxRectangle width="45" height="40" as="alternateBounds" />
          </mxGeometry>
        </mxCell>
        <mxCell id="fK0lMWsvGs1LqnmPN2tz-121" value="" style="shape=partialRectangle;html=1;whiteSpace=wrap;connectable=0;strokeColor=inherit;overflow=hidden;fillColor=none;top=0;left=0;bottom=0;right=0;pointerEvents=1;fontSize=16;fontFamily=Times New Roman;" parent="fK0lMWsvGs1LqnmPN2tz-116" vertex="1">
          <mxGeometry x="178" width="44" height="40" as="geometry">
            <mxRectangle width="44" height="40" as="alternateBounds" />
          </mxGeometry>
        </mxCell>
        <mxCell id="fK0lMWsvGs1LqnmPN2tz-122" value="2" style="shape=partialRectangle;html=1;whiteSpace=wrap;connectable=0;strokeColor=#6c8ebf;overflow=hidden;fillColor=#dae8fc;top=0;left=0;bottom=0;right=0;pointerEvents=1;fontSize=16;fontFamily=Times New Roman;" parent="fK0lMWsvGs1LqnmPN2tz-116" vertex="1">
          <mxGeometry x="222" width="45" height="40" as="geometry">
            <mxRectangle width="45" height="40" as="alternateBounds" />
          </mxGeometry>
        </mxCell>
        <mxCell id="fK0lMWsvGs1LqnmPN2tz-123" value="2" style="shape=partialRectangle;html=1;whiteSpace=wrap;connectable=0;strokeColor=#6c8ebf;overflow=hidden;fillColor=#dae8fc;top=0;left=0;bottom=0;right=0;pointerEvents=1;fontSize=16;fontFamily=Times New Roman;" parent="fK0lMWsvGs1LqnmPN2tz-116" vertex="1">
          <mxGeometry x="267" width="44" height="40" as="geometry">
            <mxRectangle width="44" height="40" as="alternateBounds" />
          </mxGeometry>
        </mxCell>
        <mxCell id="fK0lMWsvGs1LqnmPN2tz-124" value="" style="shape=partialRectangle;html=1;whiteSpace=wrap;connectable=0;strokeColor=inherit;overflow=hidden;fillColor=none;top=0;left=0;bottom=0;right=0;pointerEvents=1;fontSize=16;fontFamily=Times New Roman;" parent="fK0lMWsvGs1LqnmPN2tz-116" vertex="1">
          <mxGeometry x="311" width="45" height="40" as="geometry">
            <mxRectangle width="45" height="40" as="alternateBounds" />
          </mxGeometry>
        </mxCell>
        <mxCell id="fK0lMWsvGs1LqnmPN2tz-125" value="" style="shape=partialRectangle;html=1;whiteSpace=wrap;connectable=0;strokeColor=inherit;overflow=hidden;fillColor=none;top=0;left=0;bottom=0;right=0;pointerEvents=1;fontSize=16;fontFamily=Times New Roman;" parent="fK0lMWsvGs1LqnmPN2tz-116" vertex="1">
          <mxGeometry x="356" width="44" height="40" as="geometry">
            <mxRectangle width="44" height="40" as="alternateBounds" />
          </mxGeometry>
        </mxCell>
        <mxCell id="fK0lMWsvGs1LqnmPN2tz-104" value="" style="shape=table;startSize=0;container=1;collapsible=0;childLayout=tableLayout;fontSize=16;fontFamily=Times New Roman;" parent="1" vertex="1">
          <mxGeometry x="250" y="641" width="400" height="38" as="geometry" />
        </mxCell>
        <mxCell id="fK0lMWsvGs1LqnmPN2tz-105" value="" style="shape=tableRow;horizontal=0;startSize=0;swimlaneHead=0;swimlaneBody=0;strokeColor=#d79b00;top=0;left=0;bottom=0;right=0;collapsible=0;dropTarget=0;fillColor=#ffe6cc;points=[[0,0.5],[1,0.5]];portConstraint=eastwest;fontSize=16;fontFamily=Times New Roman;" parent="fK0lMWsvGs1LqnmPN2tz-104" vertex="1">
          <mxGeometry width="400" height="38" as="geometry" />
        </mxCell>
        <mxCell id="fK0lMWsvGs1LqnmPN2tz-106" value="1" style="shape=partialRectangle;html=1;whiteSpace=wrap;connectable=0;strokeColor=#82b366;overflow=hidden;fillColor=#d5e8d4;top=0;left=0;bottom=0;right=0;pointerEvents=1;fontSize=16;fontFamily=Times New Roman;" parent="fK0lMWsvGs1LqnmPN2tz-105" vertex="1">
          <mxGeometry width="45" height="38" as="geometry">
            <mxRectangle width="45" height="38" as="alternateBounds" />
          </mxGeometry>
        </mxCell>
        <mxCell id="fK0lMWsvGs1LqnmPN2tz-107" value="2" style="shape=partialRectangle;html=1;whiteSpace=wrap;connectable=0;strokeColor=#6c8ebf;overflow=hidden;fillColor=#dae8fc;top=0;left=0;bottom=0;right=0;pointerEvents=1;fontSize=16;fontFamily=Times New Roman;" parent="fK0lMWsvGs1LqnmPN2tz-105" vertex="1">
          <mxGeometry x="45" width="44" height="38" as="geometry">
            <mxRectangle width="44" height="38" as="alternateBounds" />
          </mxGeometry>
        </mxCell>
        <mxCell id="fK0lMWsvGs1LqnmPN2tz-108" value="3" style="shape=partialRectangle;html=1;whiteSpace=wrap;connectable=0;strokeColor=#d79b00;overflow=hidden;fillColor=#ffe6cc;top=0;left=0;bottom=0;right=0;pointerEvents=1;fontSize=16;fontFamily=Times New Roman;" parent="fK0lMWsvGs1LqnmPN2tz-105" vertex="1">
          <mxGeometry x="89" width="45" height="38" as="geometry">
            <mxRectangle width="45" height="38" as="alternateBounds" />
          </mxGeometry>
        </mxCell>
        <mxCell id="fK0lMWsvGs1LqnmPN2tz-109" value="1" style="shape=partialRectangle;html=1;whiteSpace=wrap;connectable=0;strokeColor=#82b366;overflow=hidden;fillColor=#d5e8d4;top=0;left=0;bottom=0;right=0;pointerEvents=1;fontSize=16;fontFamily=Times New Roman;" parent="fK0lMWsvGs1LqnmPN2tz-105" vertex="1">
          <mxGeometry x="134" width="43" height="38" as="geometry">
            <mxRectangle width="43" height="38" as="alternateBounds" />
          </mxGeometry>
        </mxCell>
        <mxCell id="fK0lMWsvGs1LqnmPN2tz-110" value="3" style="shape=partialRectangle;html=1;whiteSpace=wrap;connectable=0;strokeColor=#d79b00;overflow=hidden;fillColor=#ffe6cc;top=0;left=0;bottom=0;right=0;pointerEvents=1;fontSize=16;fontFamily=Times New Roman;" parent="fK0lMWsvGs1LqnmPN2tz-105" vertex="1">
          <mxGeometry x="177" width="46" height="38" as="geometry">
            <mxRectangle width="46" height="38" as="alternateBounds" />
          </mxGeometry>
        </mxCell>
        <mxCell id="fK0lMWsvGs1LqnmPN2tz-111" value="2" style="shape=partialRectangle;html=1;whiteSpace=wrap;connectable=0;strokeColor=#6c8ebf;overflow=hidden;fillColor=#dae8fc;top=0;left=0;bottom=0;right=0;pointerEvents=1;fontSize=16;fontFamily=Times New Roman;" parent="fK0lMWsvGs1LqnmPN2tz-105" vertex="1">
          <mxGeometry x="223" width="43" height="38" as="geometry">
            <mxRectangle width="43" height="38" as="alternateBounds" />
          </mxGeometry>
        </mxCell>
        <mxCell id="fK0lMWsvGs1LqnmPN2tz-112" value="2" style="shape=partialRectangle;html=1;whiteSpace=wrap;connectable=0;strokeColor=#6c8ebf;overflow=hidden;fillColor=#dae8fc;top=0;left=0;bottom=0;right=0;pointerEvents=1;fontSize=16;fontFamily=Times New Roman;" parent="fK0lMWsvGs1LqnmPN2tz-105" vertex="1">
          <mxGeometry x="266" width="45" height="38" as="geometry">
            <mxRectangle width="45" height="38" as="alternateBounds" />
          </mxGeometry>
        </mxCell>
        <mxCell id="fK0lMWsvGs1LqnmPN2tz-113" value="1" style="shape=partialRectangle;html=1;whiteSpace=wrap;connectable=0;strokeColor=#82b366;overflow=hidden;fillColor=#d5e8d4;top=0;left=0;bottom=0;right=0;pointerEvents=1;fontSize=16;fontFamily=Times New Roman;" parent="fK0lMWsvGs1LqnmPN2tz-105" vertex="1">
          <mxGeometry x="311" width="44" height="38" as="geometry">
            <mxRectangle width="44" height="38" as="alternateBounds" />
          </mxGeometry>
        </mxCell>
        <mxCell id="fK0lMWsvGs1LqnmPN2tz-114" value="3" style="shape=partialRectangle;html=1;whiteSpace=wrap;connectable=0;strokeColor=#d79b00;overflow=hidden;fillColor=#ffe6cc;top=0;left=0;bottom=0;right=0;pointerEvents=1;fontSize=16;fontFamily=Times New Roman;" parent="fK0lMWsvGs1LqnmPN2tz-105" vertex="1">
          <mxGeometry x="355" width="45" height="38" as="geometry">
            <mxRectangle width="45" height="38" as="alternateBounds" />
          </mxGeometry>
        </mxCell>
        <mxCell id="fK0lMWsvGs1LqnmPN2tz-126" value="" style="shape=table;startSize=0;container=1;collapsible=0;childLayout=tableLayout;fontSize=16;fontFamily=Times New Roman;" parent="1" vertex="1">
          <mxGeometry x="-240" y="820" width="400" height="40" as="geometry" />
        </mxCell>
        <mxCell id="fK0lMWsvGs1LqnmPN2tz-127" value="" style="shape=tableRow;horizontal=0;startSize=0;swimlaneHead=0;swimlaneBody=0;strokeColor=inherit;top=0;left=0;bottom=0;right=0;collapsible=0;dropTarget=0;fillColor=none;points=[[0,0.5],[1,0.5]];portConstraint=eastwest;fontSize=16;fontFamily=Times New Roman;" parent="fK0lMWsvGs1LqnmPN2tz-126" vertex="1">
          <mxGeometry width="400" height="40" as="geometry" />
        </mxCell>
        <mxCell id="fK0lMWsvGs1LqnmPN2tz-128" value="2" style="shape=partialRectangle;html=1;whiteSpace=wrap;connectable=0;strokeColor=#6c8ebf;overflow=hidden;fillColor=#dae8fc;top=0;left=0;bottom=0;right=0;pointerEvents=1;fontSize=16;fontFamily=Times New Roman;" parent="fK0lMWsvGs1LqnmPN2tz-127" vertex="1">
          <mxGeometry width="44" height="40" as="geometry">
            <mxRectangle width="44" height="40" as="alternateBounds" />
          </mxGeometry>
        </mxCell>
        <mxCell id="fK0lMWsvGs1LqnmPN2tz-129" value="1" style="shape=partialRectangle;html=1;whiteSpace=wrap;connectable=0;strokeColor=#82b366;overflow=hidden;fillColor=#d5e8d4;top=0;left=0;bottom=0;right=0;pointerEvents=1;fontSize=16;fontFamily=Times New Roman;" parent="fK0lMWsvGs1LqnmPN2tz-127" vertex="1">
          <mxGeometry x="44" width="45" height="40" as="geometry">
            <mxRectangle width="45" height="40" as="alternateBounds" />
          </mxGeometry>
        </mxCell>
        <mxCell id="fK0lMWsvGs1LqnmPN2tz-130" value="3" style="shape=partialRectangle;html=1;whiteSpace=wrap;connectable=0;strokeColor=#d79b00;overflow=hidden;fillColor=#ffe6cc;top=0;left=0;bottom=0;right=0;pointerEvents=1;fontSize=16;fontFamily=Times New Roman;" parent="fK0lMWsvGs1LqnmPN2tz-127" vertex="1">
          <mxGeometry x="89" width="44" height="40" as="geometry">
            <mxRectangle width="44" height="40" as="alternateBounds" />
          </mxGeometry>
        </mxCell>
        <mxCell id="fK0lMWsvGs1LqnmPN2tz-131" value="1" style="shape=partialRectangle;html=1;whiteSpace=wrap;connectable=0;strokeColor=#82b366;overflow=hidden;fillColor=#d5e8d4;top=0;left=0;bottom=0;right=0;pointerEvents=1;fontSize=16;fontFamily=Times New Roman;" parent="fK0lMWsvGs1LqnmPN2tz-127" vertex="1">
          <mxGeometry x="133" width="45" height="40" as="geometry">
            <mxRectangle width="45" height="40" as="alternateBounds" />
          </mxGeometry>
        </mxCell>
        <mxCell id="fK0lMWsvGs1LqnmPN2tz-132" value="2" style="shape=partialRectangle;html=1;whiteSpace=wrap;connectable=0;strokeColor=#6c8ebf;overflow=hidden;fillColor=#dae8fc;top=0;left=0;bottom=0;right=0;pointerEvents=1;fontSize=16;fontFamily=Times New Roman;" parent="fK0lMWsvGs1LqnmPN2tz-127" vertex="1">
          <mxGeometry x="178" width="44" height="40" as="geometry">
            <mxRectangle width="44" height="40" as="alternateBounds" />
          </mxGeometry>
        </mxCell>
        <mxCell id="fK0lMWsvGs1LqnmPN2tz-133" value="3" style="shape=partialRectangle;html=1;whiteSpace=wrap;connectable=0;strokeColor=#d79b00;overflow=hidden;fillColor=#ffe6cc;top=0;left=0;bottom=0;right=0;pointerEvents=1;fontSize=16;fontFamily=Times New Roman;" parent="fK0lMWsvGs1LqnmPN2tz-127" vertex="1">
          <mxGeometry x="222" width="45" height="40" as="geometry">
            <mxRectangle width="45" height="40" as="alternateBounds" />
          </mxGeometry>
        </mxCell>
        <mxCell id="fK0lMWsvGs1LqnmPN2tz-134" value="2" style="shape=partialRectangle;html=1;whiteSpace=wrap;connectable=0;strokeColor=#6c8ebf;overflow=hidden;fillColor=#dae8fc;top=0;left=0;bottom=0;right=0;pointerEvents=1;fontSize=16;fontFamily=Times New Roman;" parent="fK0lMWsvGs1LqnmPN2tz-127" vertex="1">
          <mxGeometry x="267" width="44" height="40" as="geometry">
            <mxRectangle width="44" height="40" as="alternateBounds" />
          </mxGeometry>
        </mxCell>
        <mxCell id="fK0lMWsvGs1LqnmPN2tz-135" value="3" style="shape=partialRectangle;html=1;whiteSpace=wrap;connectable=0;strokeColor=#d79b00;overflow=hidden;fillColor=#ffe6cc;top=0;left=0;bottom=0;right=0;pointerEvents=1;fontSize=16;fontFamily=Times New Roman;" parent="fK0lMWsvGs1LqnmPN2tz-127" vertex="1">
          <mxGeometry x="311" width="45" height="40" as="geometry">
            <mxRectangle width="45" height="40" as="alternateBounds" />
          </mxGeometry>
        </mxCell>
        <mxCell id="fK0lMWsvGs1LqnmPN2tz-136" value="1" style="shape=partialRectangle;html=1;whiteSpace=wrap;connectable=0;strokeColor=#82b366;overflow=hidden;fillColor=#d5e8d4;top=0;left=0;bottom=0;right=0;pointerEvents=1;fontSize=16;fontFamily=Times New Roman;" parent="fK0lMWsvGs1LqnmPN2tz-127" vertex="1">
          <mxGeometry x="356" width="44" height="40" as="geometry">
            <mxRectangle width="44" height="40" as="alternateBounds" />
          </mxGeometry>
        </mxCell>
        <mxCell id="fK0lMWsvGs1LqnmPN2tz-137" value="" style="shape=table;startSize=0;container=1;collapsible=0;childLayout=tableLayout;fontSize=16;fontFamily=Times New Roman;" parent="1" vertex="1">
          <mxGeometry x="250" y="900" width="400" height="40" as="geometry" />
        </mxCell>
        <mxCell id="fK0lMWsvGs1LqnmPN2tz-138" value="" style="shape=tableRow;horizontal=0;startSize=0;swimlaneHead=0;swimlaneBody=0;strokeColor=inherit;top=0;left=0;bottom=0;right=0;collapsible=0;dropTarget=0;fillColor=none;points=[[0,0.5],[1,0.5]];portConstraint=eastwest;fontSize=16;fontFamily=Times New Roman;" parent="fK0lMWsvGs1LqnmPN2tz-137" vertex="1">
          <mxGeometry width="400" height="40" as="geometry" />
        </mxCell>
        <mxCell id="fK0lMWsvGs1LqnmPN2tz-139" value="2" style="shape=partialRectangle;html=1;whiteSpace=wrap;connectable=0;strokeColor=#6c8ebf;overflow=hidden;fillColor=#dae8fc;top=0;left=0;bottom=0;right=0;pointerEvents=1;fontSize=16;fontFamily=Times New Roman;" parent="fK0lMWsvGs1LqnmPN2tz-138" vertex="1">
          <mxGeometry width="44" height="40" as="geometry">
            <mxRectangle width="44" height="40" as="alternateBounds" />
          </mxGeometry>
        </mxCell>
        <mxCell id="fK0lMWsvGs1LqnmPN2tz-140" value="1" style="shape=partialRectangle;html=1;whiteSpace=wrap;connectable=0;strokeColor=#82b366;overflow=hidden;fillColor=#d5e8d4;top=0;left=0;bottom=0;right=0;pointerEvents=1;fontSize=16;fontFamily=Times New Roman;" parent="fK0lMWsvGs1LqnmPN2tz-138" vertex="1">
          <mxGeometry x="44" width="45" height="40" as="geometry">
            <mxRectangle width="45" height="40" as="alternateBounds" />
          </mxGeometry>
        </mxCell>
        <mxCell id="fK0lMWsvGs1LqnmPN2tz-141" value="3" style="shape=partialRectangle;html=1;whiteSpace=wrap;connectable=0;strokeColor=#d79b00;overflow=hidden;fillColor=#ffe6cc;top=0;left=0;bottom=0;right=0;pointerEvents=1;fontSize=16;fontFamily=Times New Roman;" parent="fK0lMWsvGs1LqnmPN2tz-138" vertex="1">
          <mxGeometry x="89" width="44" height="40" as="geometry">
            <mxRectangle width="44" height="40" as="alternateBounds" />
          </mxGeometry>
        </mxCell>
        <mxCell id="fK0lMWsvGs1LqnmPN2tz-142" value="1" style="shape=partialRectangle;html=1;whiteSpace=wrap;connectable=0;strokeColor=#82b366;overflow=hidden;fillColor=#d5e8d4;top=0;left=0;bottom=0;right=0;pointerEvents=1;fontSize=16;fontFamily=Times New Roman;" parent="fK0lMWsvGs1LqnmPN2tz-138" vertex="1">
          <mxGeometry x="133" width="45" height="40" as="geometry">
            <mxRectangle width="45" height="40" as="alternateBounds" />
          </mxGeometry>
        </mxCell>
        <mxCell id="fK0lMWsvGs1LqnmPN2tz-143" value="2" style="shape=partialRectangle;html=1;whiteSpace=wrap;connectable=0;strokeColor=#6c8ebf;overflow=hidden;fillColor=#dae8fc;top=0;left=0;bottom=0;right=0;pointerEvents=1;fontSize=16;fontFamily=Times New Roman;" parent="fK0lMWsvGs1LqnmPN2tz-138" vertex="1">
          <mxGeometry x="178" width="44" height="40" as="geometry">
            <mxRectangle width="44" height="40" as="alternateBounds" />
          </mxGeometry>
        </mxCell>
        <mxCell id="fK0lMWsvGs1LqnmPN2tz-144" value="3" style="shape=partialRectangle;html=1;whiteSpace=wrap;connectable=0;strokeColor=#d79b00;overflow=hidden;fillColor=#ffe6cc;top=0;left=0;bottom=0;right=0;pointerEvents=1;fontSize=16;fontFamily=Times New Roman;" parent="fK0lMWsvGs1LqnmPN2tz-138" vertex="1">
          <mxGeometry x="222" width="45" height="40" as="geometry">
            <mxRectangle width="45" height="40" as="alternateBounds" />
          </mxGeometry>
        </mxCell>
        <mxCell id="fK0lMWsvGs1LqnmPN2tz-145" value="2" style="shape=partialRectangle;html=1;whiteSpace=wrap;connectable=0;strokeColor=#6c8ebf;overflow=hidden;fillColor=#dae8fc;top=0;left=0;bottom=0;right=0;pointerEvents=1;fontSize=16;fontFamily=Times New Roman;" parent="fK0lMWsvGs1LqnmPN2tz-138" vertex="1">
          <mxGeometry x="267" width="44" height="40" as="geometry">
            <mxRectangle width="44" height="40" as="alternateBounds" />
          </mxGeometry>
        </mxCell>
        <mxCell id="fK0lMWsvGs1LqnmPN2tz-146" value="1" style="shape=partialRectangle;html=1;whiteSpace=wrap;connectable=0;strokeColor=#82b366;overflow=hidden;fillColor=#d5e8d4;top=0;left=0;bottom=0;right=0;pointerEvents=1;fontSize=16;fontFamily=Times New Roman;" parent="fK0lMWsvGs1LqnmPN2tz-138" vertex="1">
          <mxGeometry x="311" width="45" height="40" as="geometry">
            <mxRectangle width="45" height="40" as="alternateBounds" />
          </mxGeometry>
        </mxCell>
        <mxCell id="fK0lMWsvGs1LqnmPN2tz-147" value="3" style="shape=partialRectangle;html=1;whiteSpace=wrap;connectable=0;strokeColor=#d79b00;overflow=hidden;fillColor=#ffe6cc;top=0;left=0;bottom=0;right=0;pointerEvents=1;fontSize=16;fontFamily=Times New Roman;" parent="fK0lMWsvGs1LqnmPN2tz-138" vertex="1">
          <mxGeometry x="356" width="44" height="40" as="geometry">
            <mxRectangle width="44" height="40" as="alternateBounds" />
          </mxGeometry>
        </mxCell>
        <mxCell id="fK0lMWsvGs1LqnmPN2tz-148" value="" style="shape=table;startSize=0;container=1;collapsible=0;childLayout=tableLayout;fontSize=16;fontFamily=Times New Roman;" parent="1" vertex="1">
          <mxGeometry x="-240" y="900" width="400" height="40" as="geometry" />
        </mxCell>
        <mxCell id="fK0lMWsvGs1LqnmPN2tz-149" value="" style="shape=tableRow;horizontal=0;startSize=0;swimlaneHead=0;swimlaneBody=0;strokeColor=inherit;top=0;left=0;bottom=0;right=0;collapsible=0;dropTarget=0;fillColor=none;points=[[0,0.5],[1,0.5]];portConstraint=eastwest;fontSize=16;fontFamily=Times New Roman;" parent="fK0lMWsvGs1LqnmPN2tz-148" vertex="1">
          <mxGeometry width="400" height="40" as="geometry" />
        </mxCell>
        <mxCell id="fK0lMWsvGs1LqnmPN2tz-150" value="1" style="shape=partialRectangle;html=1;whiteSpace=wrap;connectable=0;strokeColor=#82b366;overflow=hidden;fillColor=#d5e8d4;top=0;left=0;bottom=0;right=0;pointerEvents=1;fontSize=16;fontFamily=Times New Roman;" parent="fK0lMWsvGs1LqnmPN2tz-149" vertex="1">
          <mxGeometry width="44" height="40" as="geometry">
            <mxRectangle width="44" height="40" as="alternateBounds" />
          </mxGeometry>
        </mxCell>
        <mxCell id="fK0lMWsvGs1LqnmPN2tz-151" value="2" style="shape=partialRectangle;html=1;whiteSpace=wrap;connectable=0;strokeColor=#6c8ebf;overflow=hidden;fillColor=#dae8fc;top=0;left=0;bottom=0;right=0;pointerEvents=1;fontSize=16;fontFamily=Times New Roman;" parent="fK0lMWsvGs1LqnmPN2tz-149" vertex="1">
          <mxGeometry x="44" width="45" height="40" as="geometry">
            <mxRectangle width="45" height="40" as="alternateBounds" />
          </mxGeometry>
        </mxCell>
        <mxCell id="fK0lMWsvGs1LqnmPN2tz-152" value="3" style="shape=partialRectangle;html=1;whiteSpace=wrap;connectable=0;strokeColor=#d79b00;overflow=hidden;fillColor=#ffe6cc;top=0;left=0;bottom=0;right=0;pointerEvents=1;fontSize=16;fontFamily=Times New Roman;" parent="fK0lMWsvGs1LqnmPN2tz-149" vertex="1">
          <mxGeometry x="89" width="44" height="40" as="geometry">
            <mxRectangle width="44" height="40" as="alternateBounds" />
          </mxGeometry>
        </mxCell>
        <mxCell id="fK0lMWsvGs1LqnmPN2tz-153" value="1" style="shape=partialRectangle;html=1;whiteSpace=wrap;connectable=0;strokeColor=#82b366;overflow=hidden;fillColor=#d5e8d4;top=0;left=0;bottom=0;right=0;pointerEvents=1;fontSize=16;fontFamily=Times New Roman;" parent="fK0lMWsvGs1LqnmPN2tz-149" vertex="1">
          <mxGeometry x="133" width="45" height="40" as="geometry">
            <mxRectangle width="45" height="40" as="alternateBounds" />
          </mxGeometry>
        </mxCell>
        <mxCell id="fK0lMWsvGs1LqnmPN2tz-154" value="3" style="shape=partialRectangle;html=1;whiteSpace=wrap;connectable=0;strokeColor=#d79b00;overflow=hidden;fillColor=#ffe6cc;top=0;left=0;bottom=0;right=0;pointerEvents=1;fontSize=16;fontFamily=Times New Roman;" parent="fK0lMWsvGs1LqnmPN2tz-149" vertex="1">
          <mxGeometry x="178" width="44" height="40" as="geometry">
            <mxRectangle width="44" height="40" as="alternateBounds" />
          </mxGeometry>
        </mxCell>
        <mxCell id="fK0lMWsvGs1LqnmPN2tz-155" value="2" style="shape=partialRectangle;html=1;whiteSpace=wrap;connectable=0;strokeColor=#6c8ebf;overflow=hidden;fillColor=#dae8fc;top=0;left=0;bottom=0;right=0;pointerEvents=1;fontSize=16;fontFamily=Times New Roman;" parent="fK0lMWsvGs1LqnmPN2tz-149" vertex="1">
          <mxGeometry x="222" width="45" height="40" as="geometry">
            <mxRectangle width="45" height="40" as="alternateBounds" />
          </mxGeometry>
        </mxCell>
        <mxCell id="fK0lMWsvGs1LqnmPN2tz-156" value="2" style="shape=partialRectangle;html=1;whiteSpace=wrap;connectable=0;strokeColor=#6c8ebf;overflow=hidden;fillColor=#dae8fc;top=0;left=0;bottom=0;right=0;pointerEvents=1;fontSize=16;fontFamily=Times New Roman;" parent="fK0lMWsvGs1LqnmPN2tz-149" vertex="1">
          <mxGeometry x="267" width="44" height="40" as="geometry">
            <mxRectangle width="44" height="40" as="alternateBounds" />
          </mxGeometry>
        </mxCell>
        <mxCell id="fK0lMWsvGs1LqnmPN2tz-157" value="3" style="shape=partialRectangle;html=1;whiteSpace=wrap;connectable=0;strokeColor=#d79b00;overflow=hidden;fillColor=#ffe6cc;top=0;left=0;bottom=0;right=0;pointerEvents=1;fontSize=16;fontFamily=Times New Roman;" parent="fK0lMWsvGs1LqnmPN2tz-149" vertex="1">
          <mxGeometry x="311" width="45" height="40" as="geometry">
            <mxRectangle width="45" height="40" as="alternateBounds" />
          </mxGeometry>
        </mxCell>
        <mxCell id="fK0lMWsvGs1LqnmPN2tz-158" value="1" style="shape=partialRectangle;html=1;whiteSpace=wrap;connectable=0;strokeColor=#82b366;overflow=hidden;fillColor=#d5e8d4;top=0;left=0;bottom=0;right=0;pointerEvents=1;fontSize=16;fontFamily=Times New Roman;" parent="fK0lMWsvGs1LqnmPN2tz-149" vertex="1">
          <mxGeometry x="356" width="44" height="40" as="geometry">
            <mxRectangle width="44" height="40" as="alternateBounds" />
          </mxGeometry>
        </mxCell>
        <mxCell id="fK0lMWsvGs1LqnmPN2tz-159" value="" style="shape=table;startSize=0;container=1;collapsible=0;childLayout=tableLayout;fontSize=16;fontFamily=Times New Roman;" parent="1" vertex="1">
          <mxGeometry x="250" y="820" width="400" height="40" as="geometry" />
        </mxCell>
        <mxCell id="fK0lMWsvGs1LqnmPN2tz-160" value="" style="shape=tableRow;horizontal=0;startSize=0;swimlaneHead=0;swimlaneBody=0;strokeColor=#d79b00;top=0;left=0;bottom=0;right=0;collapsible=0;dropTarget=0;fillColor=#ffe6cc;points=[[0,0.5],[1,0.5]];portConstraint=eastwest;fontSize=16;fontFamily=Times New Roman;" parent="fK0lMWsvGs1LqnmPN2tz-159" vertex="1">
          <mxGeometry width="400" height="40" as="geometry" />
        </mxCell>
        <mxCell id="fK0lMWsvGs1LqnmPN2tz-161" value="1" style="shape=partialRectangle;html=1;whiteSpace=wrap;connectable=0;strokeColor=#82b366;overflow=hidden;fillColor=#d5e8d4;top=0;left=0;bottom=0;right=0;pointerEvents=1;fontSize=16;fontFamily=Times New Roman;" parent="fK0lMWsvGs1LqnmPN2tz-160" vertex="1">
          <mxGeometry width="44" height="40" as="geometry">
            <mxRectangle width="44" height="40" as="alternateBounds" />
          </mxGeometry>
        </mxCell>
        <mxCell id="fK0lMWsvGs1LqnmPN2tz-162" value="2" style="shape=partialRectangle;html=1;whiteSpace=wrap;connectable=0;strokeColor=#6c8ebf;overflow=hidden;fillColor=#dae8fc;top=0;left=0;bottom=0;right=0;pointerEvents=1;fontSize=16;fontFamily=Times New Roman;" parent="fK0lMWsvGs1LqnmPN2tz-160" vertex="1">
          <mxGeometry x="44" width="45" height="40" as="geometry">
            <mxRectangle width="45" height="40" as="alternateBounds" />
          </mxGeometry>
        </mxCell>
        <mxCell id="fK0lMWsvGs1LqnmPN2tz-163" value="3" style="shape=partialRectangle;html=1;whiteSpace=wrap;connectable=0;strokeColor=#d79b00;overflow=hidden;fillColor=#ffe6cc;top=0;left=0;bottom=0;right=0;pointerEvents=1;fontSize=16;fontFamily=Times New Roman;" parent="fK0lMWsvGs1LqnmPN2tz-160" vertex="1">
          <mxGeometry x="89" width="44" height="40" as="geometry">
            <mxRectangle width="44" height="40" as="alternateBounds" />
          </mxGeometry>
        </mxCell>
        <mxCell id="fK0lMWsvGs1LqnmPN2tz-164" value="1" style="shape=partialRectangle;html=1;whiteSpace=wrap;connectable=0;strokeColor=#82b366;overflow=hidden;fillColor=#d5e8d4;top=0;left=0;bottom=0;right=0;pointerEvents=1;fontSize=16;fontFamily=Times New Roman;" parent="fK0lMWsvGs1LqnmPN2tz-160" vertex="1">
          <mxGeometry x="133" width="45" height="40" as="geometry">
            <mxRectangle width="45" height="40" as="alternateBounds" />
          </mxGeometry>
        </mxCell>
        <mxCell id="fK0lMWsvGs1LqnmPN2tz-165" value="3" style="shape=partialRectangle;html=1;whiteSpace=wrap;connectable=0;strokeColor=#d79b00;overflow=hidden;fillColor=#ffe6cc;top=0;left=0;bottom=0;right=0;pointerEvents=1;fontSize=16;fontFamily=Times New Roman;" parent="fK0lMWsvGs1LqnmPN2tz-160" vertex="1">
          <mxGeometry x="178" width="44" height="40" as="geometry">
            <mxRectangle width="44" height="40" as="alternateBounds" />
          </mxGeometry>
        </mxCell>
        <mxCell id="fK0lMWsvGs1LqnmPN2tz-166" value="2" style="shape=partialRectangle;html=1;whiteSpace=wrap;connectable=0;strokeColor=#6c8ebf;overflow=hidden;fillColor=#dae8fc;top=0;left=0;bottom=0;right=0;pointerEvents=1;fontSize=16;fontFamily=Times New Roman;" parent="fK0lMWsvGs1LqnmPN2tz-160" vertex="1">
          <mxGeometry x="222" width="45" height="40" as="geometry">
            <mxRectangle width="45" height="40" as="alternateBounds" />
          </mxGeometry>
        </mxCell>
        <mxCell id="fK0lMWsvGs1LqnmPN2tz-167" value="2" style="shape=partialRectangle;html=1;whiteSpace=wrap;connectable=0;strokeColor=#6c8ebf;overflow=hidden;fillColor=#dae8fc;top=0;left=0;bottom=0;right=0;pointerEvents=1;fontSize=16;fontFamily=Times New Roman;" parent="fK0lMWsvGs1LqnmPN2tz-160" vertex="1">
          <mxGeometry x="267" width="44" height="40" as="geometry">
            <mxRectangle width="44" height="40" as="alternateBounds" />
          </mxGeometry>
        </mxCell>
        <mxCell id="fK0lMWsvGs1LqnmPN2tz-168" value="1" style="shape=partialRectangle;html=1;whiteSpace=wrap;connectable=0;strokeColor=#82b366;overflow=hidden;fillColor=#d5e8d4;top=0;left=0;bottom=0;right=0;pointerEvents=1;fontSize=16;fontFamily=Times New Roman;" parent="fK0lMWsvGs1LqnmPN2tz-160" vertex="1">
          <mxGeometry x="311" width="45" height="40" as="geometry">
            <mxRectangle width="45" height="40" as="alternateBounds" />
          </mxGeometry>
        </mxCell>
        <mxCell id="fK0lMWsvGs1LqnmPN2tz-169" value="3" style="shape=partialRectangle;html=1;whiteSpace=wrap;connectable=0;strokeColor=#d79b00;overflow=hidden;fillColor=#ffe6cc;top=0;left=0;bottom=0;right=0;pointerEvents=1;fontSize=16;fontFamily=Times New Roman;" parent="fK0lMWsvGs1LqnmPN2tz-160" vertex="1">
          <mxGeometry x="356" width="44" height="40" as="geometry">
            <mxRectangle width="44" height="40" as="alternateBounds" />
          </mxGeometry>
        </mxCell>
        <mxCell id="fK0lMWsvGs1LqnmPN2tz-170" value="M&lt;sub&gt;1&lt;/sub&gt;" style="text;html=1;align=center;verticalAlign=middle;resizable=0;points=[];autosize=1;strokeColor=none;fillColor=none;fontSize=16;fontFamily=Times New Roman;" parent="1" vertex="1">
          <mxGeometry x="-280" y="640" width="40" height="40" as="geometry" />
        </mxCell>
        <mxCell id="fK0lMWsvGs1LqnmPN2tz-171" value="M&lt;sub&gt;2&lt;/sub&gt;" style="text;html=1;align=center;verticalAlign=middle;resizable=0;points=[];autosize=1;strokeColor=none;fillColor=none;fontSize=16;fontFamily=Times New Roman;" parent="1" vertex="1">
          <mxGeometry x="210" y="640" width="40" height="40" as="geometry" />
        </mxCell>
        <mxCell id="fK0lMWsvGs1LqnmPN2tz-172" value="C&lt;sub&gt;1&lt;/sub&gt;" style="text;html=1;align=center;verticalAlign=middle;resizable=0;points=[];autosize=1;strokeColor=none;fillColor=none;fontSize=16;fontFamily=Times New Roman;" parent="1" vertex="1">
          <mxGeometry x="-280" y="720" width="40" height="40" as="geometry" />
        </mxCell>
        <mxCell id="fK0lMWsvGs1LqnmPN2tz-173" value="C&lt;sub&gt;2&lt;/sub&gt;" style="text;html=1;align=center;verticalAlign=middle;resizable=0;points=[];autosize=1;strokeColor=none;fillColor=none;fontSize=16;fontFamily=Times New Roman;" parent="1" vertex="1">
          <mxGeometry x="210" y="720" width="40" height="40" as="geometry" />
        </mxCell>
        <mxCell id="fK0lMWsvGs1LqnmPN2tz-176" value="" style="endArrow=classic;html=1;rounded=0;entryX=0.61;entryY=-0.007;entryDx=0;entryDy=0;entryPerimeter=0;exitX=0.611;exitY=1.023;exitDx=0;exitDy=0;exitPerimeter=0;fontSize=16;fontFamily=Times New Roman;" parent="1" source="fK0lMWsvGs1LqnmPN2tz-105" target="fK0lMWsvGs1LqnmPN2tz-116" edge="1">
          <mxGeometry width="50" height="50" relative="1" as="geometry">
            <mxPoint x="581" y="780" as="sourcePoint" />
            <mxPoint x="631" y="730" as="targetPoint" />
          </mxGeometry>
        </mxCell>
        <mxCell id="fK0lMWsvGs1LqnmPN2tz-177" value="" style="endArrow=classic;html=1;rounded=0;entryX=0.164;entryY=-0.006;entryDx=0;entryDy=0;entryPerimeter=0;exitX=0.165;exitY=1.014;exitDx=0;exitDy=0;exitPerimeter=0;fontSize=16;fontFamily=Times New Roman;" parent="1" source="fK0lMWsvGs1LqnmPN2tz-105" target="fK0lMWsvGs1LqnmPN2tz-116" edge="1">
          <mxGeometry width="50" height="50" relative="1" as="geometry">
            <mxPoint x="339" y="730" as="sourcePoint" />
            <mxPoint x="280" y="730" as="targetPoint" />
          </mxGeometry>
        </mxCell>
        <mxCell id="fK0lMWsvGs1LqnmPN2tz-178" value="" style="endArrow=classic;html=1;rounded=0;exitX=0.052;exitY=1.008;exitDx=0;exitDy=0;exitPerimeter=0;entryX=0.051;entryY=-0.01;entryDx=0;entryDy=0;entryPerimeter=0;fontSize=16;fontFamily=Times New Roman;" parent="1" source="fK0lMWsvGs1LqnmPN2tz-82" target="fK0lMWsvGs1LqnmPN2tz-94" edge="1">
          <mxGeometry width="50" height="50" relative="1" as="geometry">
            <mxPoint x="-420" y="860" as="sourcePoint" />
            <mxPoint x="-420" y="910" as="targetPoint" />
          </mxGeometry>
        </mxCell>
        <mxCell id="fK0lMWsvGs1LqnmPN2tz-179" value="" style="endArrow=classic;html=1;rounded=0;exitX=0.498;exitY=1.017;exitDx=0;exitDy=0;exitPerimeter=0;entryX=0.499;entryY=0.002;entryDx=0;entryDy=0;entryPerimeter=0;fontSize=16;fontFamily=Times New Roman;" parent="1" source="fK0lMWsvGs1LqnmPN2tz-83" target="fK0lMWsvGs1LqnmPN2tz-94" edge="1">
          <mxGeometry width="50" height="50" relative="1" as="geometry">
            <mxPoint x="-212" y="732" as="sourcePoint" />
            <mxPoint x="-212" y="799" as="targetPoint" />
          </mxGeometry>
        </mxCell>
        <mxCell id="fK0lMWsvGs1LqnmPN2tz-180" value="" style="endArrow=classic;html=1;rounded=0;exitX=0.722;exitY=1.028;exitDx=0;exitDy=0;exitPerimeter=0;fontSize=16;entryX=0.722;entryY=0.008;entryDx=0;entryDy=0;entryPerimeter=0;fontFamily=Times New Roman;" parent="1" source="fK0lMWsvGs1LqnmPN2tz-83" target="fK0lMWsvGs1LqnmPN2tz-94" edge="1">
          <mxGeometry width="50" height="50" relative="1" as="geometry">
            <mxPoint x="-202" y="742" as="sourcePoint" />
            <mxPoint x="140" y="770" as="targetPoint" />
          </mxGeometry>
        </mxCell>
        <mxCell id="fK0lMWsvGs1LqnmPN2tz-181" value="" style="endArrow=classic;html=1;rounded=0;entryX=0.72;entryY=-0.007;entryDx=0;entryDy=0;entryPerimeter=0;exitX=0.72;exitY=1;exitDx=0;exitDy=0;exitPerimeter=0;fontSize=16;fontFamily=Times New Roman;" parent="1" source="fK0lMWsvGs1LqnmPN2tz-105" target="fK0lMWsvGs1LqnmPN2tz-116" edge="1">
          <mxGeometry width="50" height="50" relative="1" as="geometry">
            <mxPoint x="590" y="733" as="sourcePoint" />
            <mxPoint x="589" y="800" as="targetPoint" />
          </mxGeometry>
        </mxCell>
        <mxCell id="fK0lMWsvGs1LqnmPN2tz-195" value="" style="endArrow=classic;html=1;rounded=0;exitX=0.162;exitY=1.021;exitDx=0;exitDy=0;exitPerimeter=0;entryX=0.052;entryY=0;entryDx=0;entryDy=0;entryPerimeter=0;fontSize=16;fontFamily=Times New Roman;" parent="1" source="fK0lMWsvGs1LqnmPN2tz-127" target="fK0lMWsvGs1LqnmPN2tz-149" edge="1">
          <mxGeometry width="50" height="50" relative="1" as="geometry">
            <mxPoint x="-320" y="1060" as="sourcePoint" />
            <mxPoint x="-270" y="1010" as="targetPoint" />
          </mxGeometry>
        </mxCell>
        <mxCell id="fK0lMWsvGs1LqnmPN2tz-196" value="" style="endArrow=classic;html=1;rounded=0;entryX=0.273;entryY=0.017;entryDx=0;entryDy=0;entryPerimeter=0;fontSize=16;exitX=0.274;exitY=0.996;exitDx=0;exitDy=0;exitPerimeter=0;fontFamily=Times New Roman;" parent="1" source="fK0lMWsvGs1LqnmPN2tz-127" target="fK0lMWsvGs1LqnmPN2tz-149" edge="1">
          <mxGeometry width="50" height="50" relative="1" as="geometry">
            <mxPoint x="-90.8" y="1020.28" as="sourcePoint" />
            <mxPoint x="-120.00000000000004" y="960" as="targetPoint" />
          </mxGeometry>
        </mxCell>
        <mxCell id="fK0lMWsvGs1LqnmPN2tz-197" value="" style="endArrow=classic;html=1;rounded=0;fontSize=16;exitX=0.389;exitY=0.992;exitDx=0;exitDy=0;exitPerimeter=0;entryX=0.389;entryY=0.008;entryDx=0;entryDy=0;entryPerimeter=0;fontFamily=Times New Roman;" parent="1" source="fK0lMWsvGs1LqnmPN2tz-127" target="fK0lMWsvGs1LqnmPN2tz-149" edge="1">
          <mxGeometry width="50" height="50" relative="1" as="geometry">
            <mxPoint x="-40" y="960" as="sourcePoint" />
            <mxPoint x="-40" y="1010" as="targetPoint" />
          </mxGeometry>
        </mxCell>
        <mxCell id="fK0lMWsvGs1LqnmPN2tz-198" value="" style="endArrow=classic;html=1;rounded=0;entryX=0.501;entryY=-0.01;entryDx=0;entryDy=0;entryPerimeter=0;exitX=0.612;exitY=1.017;exitDx=0;exitDy=0;exitPerimeter=0;fontSize=16;fontFamily=Times New Roman;" parent="1" source="fK0lMWsvGs1LqnmPN2tz-127" target="fK0lMWsvGs1LqnmPN2tz-149" edge="1">
          <mxGeometry width="50" height="50" relative="1" as="geometry">
            <mxPoint x="75" y="970" as="sourcePoint" />
            <mxPoint x="75" y="1038" as="targetPoint" />
          </mxGeometry>
        </mxCell>
        <mxCell id="fK0lMWsvGs1LqnmPN2tz-199" value="" style="endArrow=classic;html=1;rounded=0;entryX=0.944;entryY=-0.009;entryDx=0;entryDy=0;entryPerimeter=0;fontSize=16;exitX=0.944;exitY=1.009;exitDx=0;exitDy=0;exitPerimeter=0;fontFamily=Times New Roman;" parent="1" source="fK0lMWsvGs1LqnmPN2tz-127" target="fK0lMWsvGs1LqnmPN2tz-149" edge="1">
          <mxGeometry width="50" height="50" relative="1" as="geometry">
            <mxPoint x="260" y="960" as="sourcePoint" />
            <mxPoint x="260" y="1028" as="targetPoint" />
          </mxGeometry>
        </mxCell>
        <mxCell id="fK0lMWsvGs1LqnmPN2tz-200" value="" style="endArrow=classic;html=1;rounded=0;entryX=0.833;entryY=-0.009;entryDx=0;entryDy=0;entryPerimeter=0;fontSize=16;exitX=0.832;exitY=1.002;exitDx=0;exitDy=0;exitPerimeter=0;fontFamily=Times New Roman;" parent="1" source="fK0lMWsvGs1LqnmPN2tz-127" target="fK0lMWsvGs1LqnmPN2tz-149" edge="1">
          <mxGeometry width="50" height="50" relative="1" as="geometry">
            <mxPoint x="200" y="960" as="sourcePoint" />
            <mxPoint x="200" y="1028" as="targetPoint" />
          </mxGeometry>
        </mxCell>
        <mxCell id="fK0lMWsvGs1LqnmPN2tz-201" value="" style="endArrow=classic;html=1;rounded=0;exitX=0.056;exitY=1.016;exitDx=0;exitDy=0;exitPerimeter=0;fontSize=16;entryX=0.163;entryY=-0.001;entryDx=0;entryDy=0;entryPerimeter=0;fontFamily=Times New Roman;" parent="1" source="fK0lMWsvGs1LqnmPN2tz-160" target="fK0lMWsvGs1LqnmPN2tz-138" edge="1">
          <mxGeometry width="50" height="50" relative="1" as="geometry">
            <mxPoint x="160" y="970" as="sourcePoint" />
            <mxPoint x="340" y="1010" as="targetPoint" />
          </mxGeometry>
        </mxCell>
        <mxCell id="fK0lMWsvGs1LqnmPN2tz-202" value="" style="endArrow=classic;html=1;rounded=0;entryX=0.277;entryY=0;entryDx=0;entryDy=0;entryPerimeter=0;fontSize=16;exitX=0.277;exitY=0.999;exitDx=0;exitDy=0;exitPerimeter=0;fontFamily=Times New Roman;" parent="1" source="fK0lMWsvGs1LqnmPN2tz-160" target="fK0lMWsvGs1LqnmPN2tz-138" edge="1">
          <mxGeometry width="50" height="50" relative="1" as="geometry">
            <mxPoint x="400" y="960" as="sourcePoint" />
            <mxPoint x="400" y="1028" as="targetPoint" />
          </mxGeometry>
        </mxCell>
        <mxCell id="fK0lMWsvGs1LqnmPN2tz-203" value="" style="endArrow=classic;html=1;rounded=0;fontSize=16;exitX=0.389;exitY=1.004;exitDx=0;exitDy=0;exitPerimeter=0;entryX=0.39;entryY=-0.02;entryDx=0;entryDy=0;entryPerimeter=0;fontFamily=Times New Roman;" parent="1" source="fK0lMWsvGs1LqnmPN2tz-160" target="fK0lMWsvGs1LqnmPN2tz-138" edge="1">
          <mxGeometry width="50" height="50" relative="1" as="geometry">
            <mxPoint x="400" y="900" as="sourcePoint" />
            <mxPoint x="400" y="950" as="targetPoint" />
          </mxGeometry>
        </mxCell>
        <mxCell id="fK0lMWsvGs1LqnmPN2tz-204" value="" style="endArrow=classic;html=1;rounded=0;exitX=0.5;exitY=0.996;exitDx=0;exitDy=0;exitPerimeter=0;fontSize=16;entryX=0.61;entryY=-0.008;entryDx=0;entryDy=0;entryPerimeter=0;fontFamily=Times New Roman;" parent="1" source="fK0lMWsvGs1LqnmPN2tz-160" target="fK0lMWsvGs1LqnmPN2tz-137" edge="1">
          <mxGeometry width="50" height="50" relative="1" as="geometry">
            <mxPoint x="450" y="870" as="sourcePoint" />
            <mxPoint x="510" y="920" as="targetPoint" />
          </mxGeometry>
        </mxCell>
        <mxCell id="fK0lMWsvGs1LqnmPN2tz-205" value="" style="endArrow=classic;html=1;rounded=0;entryX=0.946;entryY=-0.009;entryDx=0;entryDy=0;entryPerimeter=0;fontSize=16;exitX=0.946;exitY=1.012;exitDx=0;exitDy=0;exitPerimeter=0;fontFamily=Times New Roman;" parent="1" source="fK0lMWsvGs1LqnmPN2tz-160" target="fK0lMWsvGs1LqnmPN2tz-138" edge="1">
          <mxGeometry width="50" height="50" relative="1" as="geometry">
            <mxPoint x="760" y="960" as="sourcePoint" />
            <mxPoint x="760" y="1028" as="targetPoint" />
          </mxGeometry>
        </mxCell>
        <mxCell id="fK0lMWsvGs1LqnmPN2tz-206" value="" style="endArrow=classic;html=1;rounded=0;entryX=0.834;entryY=-0.015;entryDx=0;entryDy=0;entryPerimeter=0;fontSize=16;fontFamily=Times New Roman;" parent="1" target="fK0lMWsvGs1LqnmPN2tz-138" edge="1">
          <mxGeometry width="50" height="50" relative="1" as="geometry">
            <mxPoint x="584" y="860" as="sourcePoint" />
            <mxPoint x="700" y="1028" as="targetPoint" />
          </mxGeometry>
        </mxCell>
        <mxCell id="gz7z_RucqT6vw0-a3m_--1" value="M&lt;sub&gt;1&lt;/sub&gt;" style="text;html=1;align=center;verticalAlign=middle;resizable=0;points=[];autosize=1;strokeColor=none;fillColor=none;fontSize=16;fontFamily=Times New Roman;" parent="1" vertex="1">
          <mxGeometry x="-280" y="820" width="40" height="40" as="geometry" />
        </mxCell>
        <mxCell id="gz7z_RucqT6vw0-a3m_--2" value="C&lt;sub&gt;1&lt;/sub&gt;" style="text;html=1;align=center;verticalAlign=middle;resizable=0;points=[];autosize=1;strokeColor=none;fillColor=none;fontSize=16;fontFamily=Times New Roman;" parent="1" vertex="1">
          <mxGeometry x="-280" y="900" width="40" height="40" as="geometry" />
        </mxCell>
        <mxCell id="gz7z_RucqT6vw0-a3m_--3" value="M&lt;sub&gt;2&lt;/sub&gt;" style="text;html=1;align=center;verticalAlign=middle;resizable=0;points=[];autosize=1;strokeColor=none;fillColor=none;fontSize=16;fontFamily=Times New Roman;" parent="1" vertex="1">
          <mxGeometry x="210" y="820" width="40" height="40" as="geometry" />
        </mxCell>
        <mxCell id="gz7z_RucqT6vw0-a3m_--4" value="C&lt;sub&gt;2&lt;/sub&gt;" style="text;html=1;align=center;verticalAlign=middle;resizable=0;points=[];autosize=1;strokeColor=none;fillColor=none;fontSize=16;fontFamily=Times New Roman;" parent="1" vertex="1">
          <mxGeometry x="210" y="900" width="40" height="40" as="geometry" />
        </mxCell>
        <mxCell id="gz7z_RucqT6vw0-a3m_--5" value="(a)" style="text;html=1;align=center;verticalAlign=middle;resizable=0;points=[];autosize=1;strokeColor=none;fillColor=none;fontFamily=Times New Roman;fontSize=16;" parent="1" vertex="1">
          <mxGeometry x="175" y="760" width="40" height="30" as="geometry" />
        </mxCell>
        <mxCell id="gz7z_RucqT6vw0-a3m_--6" value="(b)" style="text;html=1;align=center;verticalAlign=middle;resizable=0;points=[];autosize=1;strokeColor=none;fillColor=none;fontFamily=Times New Roman;fontSize=16;" parent="1" vertex="1">
          <mxGeometry x="175" y="940" width="40" height="30" as="geometry" />
        </mxCell>
      </root>
    </mxGraphModel>
  </diagram>
</mxfile>
